<?xml version="1.0" encoding="UTF-8" standalone="no"?>
<!-- Generator: Adobe Illustrator 15.1.0, SVG Export Plug-In . SVG Version: 6.00 Build 0)  -->

<svg
   xmlns:dc="http://purl.org/dc/elements/1.1/"
   xmlns:cc="http://creativecommons.org/ns#"
   xmlns:rdf="http://www.w3.org/1999/02/22-rdf-syntax-ns#"
   xmlns:svg="http://www.w3.org/2000/svg"
   xmlns="http://www.w3.org/2000/svg"
   xmlns:sodipodi="http://sodipodi.sourceforge.net/DTD/sodipodi-0.dtd"
   xmlns:inkscape="http://www.inkscape.org/namespaces/inkscape"
   version="1.1"
   id="Layer_1"
   x="0px"
   y="0px"
   width="100px"
   height="366.153px"
   viewBox="-9.187 -34.445 100 366.153"
   enable-background="new -9.187 -34.445 100 366.153"
   xml:space="preserve"
   inkscape:version="0.48.0 r9654"
   sodipodi:docname="合氣道.svg"><metadata
   id="metadata5895"><rdf:RDF><cc:Work
       rdf:about=""><dc:format>image/svg+xml</dc:format><dc:type
         rdf:resource="http://purl.org/dc/dcmitype/StillImage" /><dc:title></dc:title></cc:Work></rdf:RDF></metadata><defs
   id="defs5893" /><sodipodi:namedview
   pagecolor="#ffffff"
   bordercolor="#666666"
   borderopacity="1"
   objecttolerance="10"
   gridtolerance="10"
   guidetolerance="10"
   inkscape:pageopacity="0"
   inkscape:pageshadow="2"
   inkscape:window-width="1366"
   inkscape:window-height="706"
   id="namedview5891"
   showgrid="false"
   inkscape:zoom="0.77563201"
   inkscape:cx="-98.266186"
   inkscape:cy="183.07651"
   inkscape:window-x="-8"
   inkscape:window-y="-8"
   inkscape:window-maximized="1"
   inkscape:current-layer="layer5" />
<g
   inkscape:groupmode="layer"
   id="layer5"
   inkscape:label="do"
   style="display:inline"><g
     style="display:inline"
     id="g5883"
     inkscape:export-filename="C:\Users\Mr.Sud0\Documents\do.png"
     inkscape:export-xdpi="28.979092"
     inkscape:export-ydpi="28.979092">
	
	
	<path
   d="m -4.573,310.991 c 1.083,0.063 2.041,0.094 2.874,0.094 2.14,0 4.343,-0.11 6.607,-0.33 2.643,-0.218 5.033,-0.329 7.174,-0.329 3.261,0 6.765,0.633 10.513,1.897 11.003,3.239 20.009,5.294 27.019,6.163 7.173,1.027 19.682,1.778 37.533,2.251 2.442,0 3.666,0.239 3.666,0.713 0,0.749 -2.201,2.001 -6.6,3.752 -10.844,4.337 -17.648,6.506 -20.417,6.506 -1.876,0 -5.381,-0.928 -10.515,-2.782 -13.448,-5.485 -24.493,-9.601 -33.131,-12.343 -3.26,-0.969 -5.949,-1.454 -8.068,-1.454 -4.347,0 -8.072,0.601 -11.177,1.798 -1.118,0.684 -2.048,1.026 -2.792,1.026 -1.261,0 -2.649,-0.673 -4.161,-2.016 -1.681,-1.514 -2.521,-2.9 -2.521,-4.16 0,-0.588 0.583,-0.882 1.75,-0.882 0.579,0.002 1.33,0.035 2.246,0.096 z m 21.084,-31.978 c 1.358,0.918 2.037,1.764 2.037,2.535 0,0.672 -0.429,1.42 -1.285,2.24 -1.868,1.644 -3.698,3.622 -5.49,5.936 -1.946,2.316 -2.919,3.549 -2.919,3.697 0,0.324 0.7,0.893 2.104,1.705 3.438,2.439 5.157,5.407 5.157,8.902 0,2.161 -0.587,4.107 -1.755,5.833 -1.393,1.947 -2.491,2.919 -3.294,2.919 -0.147,0 -0.22,-0.322 -0.22,-0.969 0,-0.285 0.177,-0.753 0.538,-1.398 0.141,-0.932 0.215,-1.897 0.215,-2.905 0,-3.944 -1.674,-8.089 -5.017,-12.432 -0.807,-0.473 -1.208,-1.025 -1.208,-1.658 0,-0.15 0.769,-2.401 2.304,-6.747 0.409,-1.067 0.614,-1.678 0.614,-1.83 0,-0.565 -0.346,-0.848 -1.035,-0.848 -0.233,0 -1.273,0.321 -3.125,0.962 -2.433,0.534 -4.285,0.799 -5.559,0.799 -1.52,0 -2.423,-0.147 -2.71,-0.442 -1.521,-0.444 -2.277,-0.924 -2.277,-1.438 0,-0.53 0.714,-0.947 2.14,-1.252 4.011,-0.909 8.291,-2.615 12.835,-5.116 1.338,-0.756 2.096,-1.136 2.272,-1.136 1.211,10e-4 3.106,0.882 5.678,2.643 z M 4.621,252.279 c 3.623,0.787 6.342,1.653 8.154,2.596 1.598,1.104 2.397,2.601 2.397,4.49 0,3.199 -1.317,4.8 -3.952,4.8 -0.927,0 -1.909,-0.398 -2.953,-1.195 -1.966,-1.433 -4.745,-4.458 -8.333,-9.077 -0.462,-0.479 -0.694,-0.837 -0.694,-1.076 0.183,-0.753 0.588,-1.131 1.223,-1.131 1.282,0.002 2.666,0.198 4.158,0.593 z m 71.1,3.887 c 2.603,1.632 3.906,2.875 3.906,3.729 -0.08,0.855 -1.304,1.32 -3.671,1.398 -6.728,0.154 -14.415,0.655 -23.063,1.5 -4.894,0.462 -11.36,1.35 -19.397,2.657 -1.572,0.308 -2.533,0.461 -2.882,0.461 -1.627,0 -3.251,-0.43 -4.875,-1.291 -1.937,-0.781 -2.904,-1.524 -2.904,-2.229 0,-0.313 0.728,-0.624 2.185,-0.937 16.248,-1.921 29.583,-3.727 40.007,-5.416 3.648,-0.69 5.951,-1.037 6.907,-1.037 0.395,-0.001 1.658,0.389 3.787,1.165 z m -39.502,18.427 c 1.081,0.717 1.624,1.824 1.624,3.324 -0.287,18.605 -0.653,29.226 -1.096,31.864 -0.191,1.425 -0.526,2.138 -1.002,2.138 -0.792,0 -1.582,-0.722 -2.374,-2.165 -1.078,-1.805 -1.62,-3.646 -1.62,-5.524 0,-0.659 0.073,-1.254 0.214,-1.784 0.309,-1.518 0.559,-3.728 0.749,-6.636 0.215,-2.771 0.323,-7.444 0.323,-14.016 0,-2.836 -0.593,-4.85 -1.776,-6.04 -0.444,-0.428 -0.666,-0.743 -0.666,-0.94 0,-0.788 0.539,-1.184 1.621,-1.184 1.587,-0.002 2.921,0.32 4.003,0.963 z m -0.285,-31.265 c 3.166,0.901 5.543,1.895 7.124,2.975 1.398,1.264 2.097,2.977 2.097,5.142 0,2.745 -1.13,4.115 -3.389,4.115 -0.813,0 -1.676,-0.419 -2.589,-1.257 -1.729,-1.508 -4.166,-4.69 -7.314,-9.551 -0.406,-0.502 -0.61,-0.879 -0.61,-1.13 0.154,-0.646 0.505,-0.97 1.048,-0.97 1.119,0 2.327,0.227 3.633,0.676 z m 31.9,28.916 c 1.907,1.02 2.864,1.911 2.864,2.676 0,0.626 -0.293,1.774 -0.881,3.442 -0.488,0.834 -0.732,3.759 -0.732,8.765 0,4.905 0.04,8.977 0.121,12.209 0.081,1.983 0.123,3.759 0.123,5.321 0,2.186 -0.396,4.086 -1.184,5.701 -0.945,1.899 -1.851,2.85 -2.717,2.85 -0.479,0 -1.137,-0.572 -1.971,-1.722 -1.198,-1.725 -1.793,-3.256 -1.793,-4.597 0,-0.668 0.094,-1.628 0.282,-2.872 0.188,-1.34 0.284,-2.632 0.284,-3.876 0,-14.807 -0.45,-23.005 -1.347,-24.591 -0.497,-0.527 -1.395,-0.793 -2.689,-0.793 -2.49,0 -6.118,0.444 -10.883,1.331 -4.225,0.888 -7.202,1.331 -8.933,1.331 -1.368,0 -2.479,-0.3 -3.332,-0.897 -0.684,-0.341 -1.025,-0.769 -1.025,-1.28 0,-0.382 0.513,-0.573 1.541,-0.573 6.476,-0.669 13.825,-1.865 22.048,-3.587 2.773,-0.669 4.367,-1.003 4.778,-1.003 0.672,0 2.485,0.722 5.446,2.165 z m -8.109,30.694 c 0,0 0.985,0.476 2.958,1.426 1.543,1.04 2.317,1.902 2.317,2.593 0,0.484 -0.376,0.727 -1.124,0.727 -2.994,0 -5.739,0.162 -8.234,0.484 l -11.605,1.089 c -2.12,0.242 -3.742,0.363 -4.866,0.363 -1.821,0 -3.063,-0.332 -3.725,-0.996 -0.663,-0.664 -0.993,-1.285 -0.993,-1.865 0,-0.829 0.524,-1.246 1.574,-1.246 5.907,-0.343 11.413,-0.988 16.515,-1.931 2.82,-0.43 4.699,-0.645 5.641,-0.645 1.028,10e-4 1.542,10e-4 1.542,10e-4 z m 0.681,-21.457 c 1.912,0.678 2.87,1.261 2.87,1.743 0,0.777 -1.157,1.409 -3.476,1.893 -1.852,0.196 -3.416,0.396 -4.697,0.596 -1.139,0.197 -4.059,0.694 -8.755,1.484 -2.563,0.397 -4.413,0.595 -5.551,0.595 -1.478,0 -2.712,-0.147 -3.697,-0.443 -1.479,-0.491 -2.219,-1.034 -2.219,-1.627 0,-0.889 1.158,-1.381 3.476,-1.479 5.28,-0.774 10.413,-1.785 15.4,-3.022 1.466,-0.311 2.271,-0.466 2.42,-0.466 0.705,0 2.116,0.241 4.229,0.726 z m 0.432,10.756 c 1.911,0.679 2.869,1.261 2.869,1.745 0,0.776 -1.158,1.406 -3.476,1.892 -1.853,0.23 -3.417,0.459 -4.697,0.69 -1.14,0.23 -4.059,0.806 -8.756,1.725 -2.563,0.459 -4.413,0.689 -5.551,0.689 -1.478,0 -2.712,-0.146 -3.697,-0.443 -1.479,-0.492 -2.219,-1.035 -2.219,-1.627 0,-0.887 1.158,-1.381 3.476,-1.479 5.28,-0.87 10.413,-2.001 15.401,-3.396 1.466,-0.347 2.271,-0.521 2.42,-0.521 0.705,-0.002 2.116,0.243 4.23,0.725 z M 49.236,262.288 c 1.904,1.234 2.856,2.324 2.856,3.275 0,0.16 -0.35,0.48 -1.048,0.958 -0.818,0.882 -1.574,1.761 -2.272,2.642 -2.33,2.399 -4.252,3.998 -5.768,4.799 -1.048,0.64 -1.746,0.959 -2.097,0.959 -0.538,-0.097 -0.807,-0.338 -0.807,-0.726 1.368,-2.296 2.395,-4.237 3.081,-5.821 0.454,-1.268 0.683,-2.259 0.683,-2.971 0,-0.566 -0.161,-1.512 -0.484,-2.837 0.19,-1.228 0.763,-1.842 1.714,-1.842 1.048,-0.002 2.427,0.519 4.142,1.564 z m 18.053,-22.275 c 2.148,1.35 3.223,2.496 3.223,3.445 0,0.249 -0.303,0.539 -0.906,0.869 -0.949,0.413 -2.288,1.364 -4.011,2.854 -2.677,2.399 -5.696,4.716 -9.061,6.948 -2.243,1.241 -3.582,1.86 -4.012,1.86 -0.314,0 -0.471,-0.156 -0.471,-0.47 2.972,-3.788 5.271,-7.167 6.9,-10.129 1.342,-2.473 2.014,-4.322 2.014,-5.563 0,-0.983 0.478,-1.477 1.432,-1.477 0.954,0 2.586,0.554 4.892,1.663 z"
   id="path5889"
   inkscape:connector-curvature="0" />
</g></g><g
   inkscape:groupmode="layer"
   id="layer4"
   inkscape:label="ki"
   style="display:inline"><path
     d="m 17.029,172.416 c 1.163,0.862 1.747,1.763 1.747,2.702 0,0.283 -0.272,0.583 -0.814,0.905 -0.465,0.444 -0.852,0.886 -1.161,1.328 -1.009,1.126 -2.131,2.332 -3.371,3.62 -1.86,1.608 -3.757,2.996 -5.693,4.164 -1.86,1.005 -3.642,1.789 -5.347,2.354 -1.55,0.479 -2.479,0.723 -2.788,0.723 -0.646,0 -0.968,-0.136 -0.968,-0.403 2.016,-1.506 3.529,-2.788 4.539,-3.851 2.325,-2.08 4.305,-4.139 5.935,-6.174 1.396,-1.769 2.326,-3.186 2.794,-4.248 0.388,-0.573 0.58,-1.147 0.58,-1.726 0,-0.538 0.312,-0.808 0.935,-0.808 1.32,0.004 2.523,0.474 3.612,1.414 z m 25.786,-14.319 c 1.082,0 2.341,0.323 3.783,0.968 1.081,0.72 1.622,1.472 1.622,2.261 0,0.571 -0.78,0.894 -2.337,0.965 -9.166,0.717 -20.437,2.643 -33.817,5.787 -2.844,0.788 -4.628,1.181 -5.363,1.181 -1.005,0 -2.581,-0.465 -4.732,-1.398 -1.577,-0.932 -2.366,-1.756 -2.366,-2.475 0,-0.428 0.679,-0.713 2.039,-0.857 7.066,-0.785 18.525,-2.571 34.378,-5.357 3.894,-0.716 6.159,-1.075 6.793,-1.075 z M 27.731,103.351 c 2.859,1.874 4.289,3.5 4.289,4.881 0,0.391 -0.386,0.845 -1.158,1.363 -0.675,0.78 -1.399,1.753 -2.172,2.921 -3.479,5.322 -6.956,9.736 -10.436,13.239 -2.801,2.857 -5.989,5.322 -9.563,7.4 -2.415,1.428 -4.008,2.141 -4.78,2.141 -0.495,0 -0.739,-0.123 -0.739,-0.37 0,-0.253 0.289,-0.567 0.868,-0.943 3.089,-2.767 6.177,-6.102 9.266,-10.003 2.798,-3.521 5.355,-7.546 7.673,-12.077 1.447,-2.767 2.17,-5.346 2.17,-7.738 0,-1.332 0.445,-1.997 1.332,-1.997 0.785,10e-4 1.868,0.396 3.25,1.183 z m -15.693,46.92 c 2.211,0.459 3.872,0.968 4.98,1.521 0.976,0.646 1.464,1.519 1.464,2.624 0,2.744 -1.129,4.114 -3.389,4.114 -0.513,0 -1.06,-0.268 -1.636,-0.803 -1.092,-0.966 -2.631,-3.001 -4.62,-6.11 -0.256,-0.321 -0.384,-0.561 -0.384,-0.723 0.154,-0.645 0.504,-0.968 1.047,-0.968 0.781,-0.002 1.627,0.114 2.538,0.345 z m 45.334,-20.582 c 0,0 1.305,0.564 3.915,1.688 1.771,1.125 2.656,1.99 2.656,2.594 0,0.403 -0.245,1.16 -0.732,2.268 -1.395,3.33 -2.544,7.314 -3.45,11.953 -0.836,4.74 -1.254,10.086 -1.254,16.035 0,7.333 2.143,13.438 6.429,18.324 3.834,3.87 7.781,5.804 11.842,5.804 1.866,0 3.021,-1.224 3.463,-3.671 l 1.866,-10.553 c 0.088,-1.225 0.266,-1.838 0.533,-1.838 0.301,0 0.552,0.6 0.753,1.794 1.405,7.176 2.709,11.908 3.917,14.2 0.902,1.495 1.354,2.741 1.354,3.736 0,0.936 -0.708,1.778 -2.122,2.529 -1.51,0.934 -3.772,1.404 -6.792,1.404 -7.709,0 -14.157,-2.951 -19.346,-8.853 -4.878,-5.604 -7.314,-14.308 -7.314,-26.11 0,-6.783 -0.06,-13.459 -0.175,-20.03 -0.046,-1.695 -0.067,-2.86 -0.067,-3.498 0,-0.755 -0.524,-1.136 -1.574,-1.136 -1.23,0 -3.688,0.341 -7.375,1.02 -7.992,1.497 -15.676,3.131 -23.051,4.898 -2.254,0.545 -3.79,0.817 -4.61,0.817 -1.173,0 -2.599,-0.415 -4.274,-1.245 -1.931,-1.077 -2.894,-2.032 -2.894,-2.862 0,-0.356 0.76,-0.534 2.278,-0.534 6.078,-0.475 13.45,-1.604 22.112,-3.389 7.903,-1.426 14.361,-2.911 19.376,-4.457 1.976,-0.593 3.114,-0.892 3.418,-0.892 0.746,0.004 1.118,0.004 1.118,0.004 z M 27.824,144.84 c 2.221,0.942 3.334,1.958 3.334,3.055 0,0.443 -0.161,0.938 -0.481,1.48 -0.484,0.79 -0.806,2.146 -0.965,4.069 -0.563,3.899 -0.846,11.151 -0.846,21.755 0,1.924 0.075,3.946 0.224,6.067 0.146,1.774 0.221,3.207 0.221,4.292 0,2.59 -0.554,4.985 -1.657,7.184 -0.945,1.57 -1.776,2.355 -2.484,2.355 -0.553,0 -1.302,-1.06 -2.249,-3.173 -0.789,-2.352 -1.223,-4.152 -1.301,-5.405 0,-0.563 0.283,-1.46 0.846,-2.687 0.161,-0.615 0.404,-1.611 0.727,-2.991 0.725,-4.808 1.089,-13.298 1.089,-25.472 0,-3.375 -0.122,-5.625 -0.36,-6.75 -0.243,-1.073 -0.606,-1.893 -1.087,-2.455 -0.564,-0.409 -0.844,-0.844 -0.844,-1.305 0,-0.641 0.673,-0.96 2.024,-0.96 1.189,0.002 2.459,0.316 3.809,0.941 z m 29.743,-36.824 c 1.8,1 2.7,1.785 2.7,2.354 0,0.715 -0.613,1.178 -1.836,1.391 -5.405,0.606 -12.438,2.175 -21.096,4.709 -4.298,1.208 -6.604,1.813 -6.91,1.813 -1.068,0 -2.244,-0.144 -3.523,-0.429 -2.14,-0.501 -3.207,-1.145 -3.207,-1.932 0,-0.397 0.368,-0.645 1.108,-0.747 5.659,-1.094 13.379,-3.482 23.161,-7.165 2.646,-0.996 4.153,-1.493 4.522,-1.493 0.578,0.002 2.27,0.5 5.081,1.499 z m -8.944,13.26 c 1.737,0.618 2.607,1.146 2.607,1.586 0,0.706 -1.053,1.279 -3.159,1.719 -1.85,0.337 -3.416,0.674 -4.696,1.011 -1.139,0.335 -4.056,1.178 -8.752,2.524 -2.562,0.674 -4.41,1.01 -5.549,1.01 -1.344,0 -2.465,-0.134 -3.362,-0.403 -1.343,-0.447 -2.016,-0.94 -2.016,-1.478 0,-0.807 1.052,-1.254 3.161,-1.345 5.309,-1.173 10.473,-2.701 15.488,-4.579 1.474,-0.469 2.286,-0.705 2.434,-0.705 0.64,-0.001 1.922,0.219 3.844,0.66 z m -12.708,48.423 c 2.215,0.829 4.372,1.797 6.476,2.905 2.766,1.661 4.593,3.181 5.477,4.563 0.665,1.2 0.997,2.536 0.997,4.01 0,0.938 -0.234,1.993 -0.699,3.166 -0.544,0.861 -1.243,1.291 -2.097,1.291 -0.361,0 -0.903,-0.308 -1.626,-0.928 -1.203,-0.886 -2.71,-2.743 -4.514,-5.57 -2.407,-3.537 -4.213,-5.924 -5.417,-7.161 -0.964,-0.885 -1.444,-1.546 -1.444,-1.991 0,-0.466 0.174,-0.699 0.524,-0.699 0.442,-0.001 1.218,0.139 2.323,0.414 z m 3.741,-27.088 c 0.571,0 1.647,0.539 3.227,1.614 1.721,1.364 2.582,2.299 2.582,2.802 0,0.512 -0.265,0.938 -0.792,1.279 -1.919,1.622 -4.961,3.755 -9.127,6.398 -0.398,0.255 -0.763,0.383 -1.092,0.383 -0.202,0 -0.303,-0.141 -0.303,-0.423 0,-0.08 0.092,-0.24 0.283,-0.482 1.055,-1.847 1.957,-3.614 2.704,-5.304 0.994,-2.088 1.68,-3.896 2.054,-5.424 0.121,-0.562 0.277,-0.843 0.464,-0.843 z"
     id="path5887"
     inkscape:connector-curvature="0"
     inkscape:export-filename="C:\Users\Mr.Sud0\Documents\ki.png"
     inkscape:export-xdpi="31.989338"
     inkscape:export-ydpi="31.989338" /></g><g
   inkscape:groupmode="layer"
   id="layer3"
   inkscape:label="ai"
   style="display:inline"><path
     d="m 36.527,-33.186 c 3.323,2.514 4.985,4.483 4.985,5.909 0,0.484 -0.335,1.168 -1,2.052 -0.889,1.45 -2.001,3.222 -3.333,5.313 -2.555,4.266 -6.33,9.819 -11.33,16.662 -6.22,7.727 -12.718,13.884 -19.493,18.472 -7.11,4.749 -11.941,7.125 -14.495,7.125 -0.699,0 -1.048,-0.203 -1.048,-0.612 0,-0.242 0.417,-0.645 1.254,-1.21 6.326,-4.119 13.551,-10.818 21.669,-20.102 6.208,-6.778 11.223,-13.842 15.045,-21.188 1.669,-2.906 2.506,-6.416 2.506,-10.534 0,-2.097 0.639,-3.146 1.918,-3.146 0.679,0.003 1.787,0.422 3.322,1.259 z M 15.831,26.649 c 0,0 0.566,0.217 1.698,0.647 2.477,0.862 3.715,1.904 3.715,3.124 0,1.374 0.092,2.81 0.284,4.302 1.196,9.143 1.792,15.445 1.792,18.909 0,1.189 -0.18,2.136 -0.538,2.836 -0.359,0.77 -0.791,1.156 -1.292,1.156 -0.575,0 -1.148,-0.465 -1.725,-1.393 -0.862,-1.215 -1.33,-2.501 -1.399,-3.858 l -1.208,-8.63 c -0.47,-4.495 -0.975,-7.643 -1.511,-9.443 -0.336,-1.857 -1.209,-3.567 -2.619,-5.125 -0.539,-0.419 -0.807,-0.717 -0.807,-0.899 0,-1.084 0.459,-1.627 1.379,-1.627 1.488,0.001 2.231,0.001 2.231,0.001 z m 33.7,-18.197 c 1.419,0.616 2.131,1.388 2.131,2.313 0,0.501 -0.648,0.896 -1.938,1.181 -1.496,0.501 -4.829,1.146 -9.997,1.933 -7.819,1.075 -12.918,1.611 -15.298,1.611 -3.174,0 -5.381,-0.355 -6.618,-1.067 -1.241,-0.868 -1.858,-1.621 -1.858,-2.254 0,-0.426 0.952,-0.675 2.856,-0.747 4.491,-0.426 9.42,-1.139 14.796,-2.135 3.741,-0.641 6.769,-1.316 9.081,-2.027 0.818,-0.285 1.362,-0.427 1.633,-0.427 1.344,0 3.081,0.54 5.212,1.619 z m 5.346,13.679 c 0,0 1.191,0.772 3.577,2.313 2.981,2.057 4.474,3.599 4.474,4.624 0,0.37 -0.373,0.922 -1.117,1.659 -1.065,0.922 -1.916,2.306 -2.555,4.147 -1.278,2.952 -2.662,7.191 -4.152,12.721 -0.43,1.049 -1.506,1.923 -3.227,2.622 -1.378,0.349 -2.495,0.523 -3.355,0.523 -0.259,0 -0.689,-0.175 -1.291,-0.521 -0.347,-0.696 -0.517,-1.086 -0.517,-1.173 0,-0.186 0.143,-0.642 0.43,-1.375 0.86,-2.564 1.648,-5.769 2.366,-9.618 0.717,-3.481 1.075,-6.045 1.075,-7.696 0,-1.398 -1.369,-2.097 -4.114,-2.097 -1.428,0 -5.347,0.564 -11.751,1.691 -8.706,1.543 -13.245,2.314 -13.619,2.314 -1.287,0 -2.396,-0.396 -3.324,-1.189 -0.932,-0.721 -1.396,-1.334 -1.396,-1.839 0,-0.649 0.524,-1.009 1.574,-1.081 h 1.574 c 4.382,-0.293 9.46,-0.913 15.235,-1.865 5.376,-1.022 10.189,-2.119 14.437,-3.289 1.858,-0.585 3.154,-0.877 3.885,-0.877 1.195,0.006 1.791,0.006 1.791,0.006 z m -3.302,24.631 c 0,0 1.063,0.511 3.188,1.536 1.66,1.117 2.491,2.047 2.491,2.793 0,0.479 -0.476,0.72 -1.425,0.72 -3.802,0 -7.285,0.16 -10.451,0.479 l -14.725,1.077 c -2.694,0.24 -4.751,0.36 -6.176,0.36 -1.963,0 -3.299,-0.357 -4.012,-1.072 -0.714,-0.716 -1.07,-1.385 -1.07,-2.009 0,-0.894 0.564,-1.341 1.693,-1.341 7.688,-0.339 14.85,-0.975 21.487,-1.906 3.668,-0.424 6.113,-0.635 7.338,-0.635 1.109,-0.002 1.662,-0.002 1.662,-0.002 z M 44.29,-17.59 c 9.498,9.613 16.552,15.905 21.16,18.876 4.75,2.971 12.361,6.554 22.836,10.75 1.396,0.523 2.096,1.047 2.096,1.573 0,0.579 -0.673,1.012 -2.019,1.301 -7.67,1.518 -12.986,2.276 -15.945,2.276 -1.887,0 -3.836,-0.651 -5.854,-1.951 -2.02,-1.464 -7.94,-8.458 -17.763,-20.983 -2.963,-3.902 -5.788,-7.235 -8.477,-10.003 -2.558,-2.601 -5.047,-4.472 -7.469,-5.61 -0.943,-0.161 -1.413,-0.65 -1.413,-1.464 0,-0.877 0.72,-1.317 2.164,-1.317 2.373,-0.003 5.935,2.182 10.684,6.552 z"
     id="path5885"
     inkscape:connector-curvature="0"
     inkscape:export-filename="C:\Users\Mr.Sud0\Documents\ai.png"
     inkscape:export-xdpi="28.924665"
     inkscape:export-ydpi="28.924665" /></g>
</svg>