<?xml version="1.0" encoding="UTF-8" standalone="no"?>
<!-- Created with Inkscape (http://www.inkscape.org/) -->

<svg
   xmlns:osb="http://www.openswatchbook.org/uri/2009/osb"
   xmlns:dc="http://purl.org/dc/elements/1.1/"
   xmlns:cc="http://creativecommons.org/ns#"
   xmlns:rdf="http://www.w3.org/1999/02/22-rdf-syntax-ns#"
   xmlns:svg="http://www.w3.org/2000/svg"
   xmlns="http://www.w3.org/2000/svg"
   xmlns:xlink="http://www.w3.org/1999/xlink"
   xmlns:sodipodi="http://sodipodi.sourceforge.net/DTD/sodipodi-0.dtd"
   xmlns:inkscape="http://www.inkscape.org/namespaces/inkscape"
   id="svg6659"
   version="1.1"
   inkscape:version="0.48.0 r9654"
   width="731"
   height="584"
   sodipodi:docname="bonsai.svg"
   inkscape:label="Bonsai"
   style="display:inline;enable-background:new">
  <metadata
     id="metadata6665">
    <rdf:RDF>
      <cc:Work
         rdf:about="">
        <dc:format>image/svg+xml</dc:format>
        <dc:type
           rdf:resource="http://purl.org/dc/dcmitype/StillImage" />
        <dc:title />
      </cc:Work>
    </rdf:RDF>
  </metadata>
  <defs
     id="defs6663">
    <linearGradient
       id="linearGradient8900"
       osb:paint="solid">
      <stop
         style="stop-color:#5c3b3b;stop-opacity:1;"
         offset="0"
         id="stop8902" />
    </linearGradient>
    <linearGradient
       id="linearGradient8857"
       osb:paint="solid">
      <stop
         style="stop-color:#5c3b3b;stop-opacity:1;"
         offset="0"
         id="stop8859" />
    </linearGradient>
    <marker
       inkscape:stockid="Arrow1Lstart"
       orient="auto"
       refY="0.0"
       refX="0.0"
       id="Arrow1Lstart"
       style="overflow:visible">
      <path
         id="path7451"
         d="M 0.0,0.0 L 5.0,-5.0 L -12.5,0.0 L 5.0,5.0 L 0.0,0.0 z "
         style="fill-rule:evenodd;stroke:#000000;stroke-width:1.0pt;marker-start:none"
         transform="scale(0.8) translate(12.5,0)" />
    </marker>
    <linearGradient
       id="linearGradient7442"
       osb:paint="solid">
      <stop
         style="stop-color:#fcfcfb;stop-opacity:1;"
         offset="0"
         id="stop7444" />
    </linearGradient>
    <linearGradient
       id="linearGradient7388"
       osb:paint="solid">
      <stop
         style="stop-color:#000000;stop-opacity:1;"
         offset="0"
         id="stop7390" />
    </linearGradient>
    <linearGradient
       inkscape:collect="always"
       id="linearGradient7318">
      <stop
         style="stop-color:#000000;stop-opacity:1;"
         offset="0"
         id="stop7320" />
      <stop
         style="stop-color:#000000;stop-opacity:0;"
         offset="1"
         id="stop7322" />
    </linearGradient>
    <radialGradient
       inkscape:collect="always"
       xlink:href="#linearGradient7318"
       id="radialGradient7326"
       cx="170"
       cy="293.99948"
       fx="170"
       fy="293.99948"
       r="210.54073"
       gradientTransform="matrix(1,0,0,0.90498556,0,27.934196)"
       gradientUnits="userSpaceOnUse" />
    <filter
       inkscape:collect="always"
       id="filter7336">
      <feGaussianBlur
         inkscape:collect="always"
         stdDeviation="3.996851"
         id="feGaussianBlur7338" />
    </filter>
  </defs>
  <sodipodi:namedview
     pagecolor="#ffffff"
     bordercolor="#666666"
     borderopacity="1"
     objecttolerance="10"
     gridtolerance="10"
     guidetolerance="10"
     inkscape:pageopacity="0"
     inkscape:pageshadow="2"
     inkscape:window-width="1366"
     inkscape:window-height="706"
     id="namedview6661"
     showgrid="true"
     inkscape:snap-nodes="true"
     inkscape:object-paths="true"
     inkscape:object-nodes="false"
     inkscape:zoom="3.890411"
     inkscape:cx="282.02869"
     inkscape:cy="366.30565"
     inkscape:window-x="-8"
     inkscape:window-y="-8"
     inkscape:window-maximized="1"
     inkscape:current-layer="layer9">
    <inkscape:grid
       type="xygrid"
       id="grid6669"
       empspacing="5"
       visible="true"
       enabled="true"
       snapvisiblegridlinesonly="true" />
  </sodipodi:namedview>
  <g
     inkscape:groupmode="layer"
     id="layer5"
     inkscape:label="Circle"
     style="display:inline">
    <path
       transform="matrix(0.66807788,0.49742921,-0.52475814,0.70478231,402.4093,-32.247273)"
       style="opacity:0.87000002;fill:#cc0303;fill-opacity:1;stroke:url(#radialGradient7326);stroke-opacity:1;filter:url(#filter7336)"
       d="M 380,294 C 380,398.9341 297.49563,483.904 170,484 54.02024,484.0873 -40,398.9341 -40,294 -40,189.0659 54.020203,104 170,104 c 115.9798,0 210,85.0659 210,190 z"
       id="path6704"
       inkscape:connector-curvature="0"
       sodipodi:nodetypes="sssss"
       inkscape:export-filename="C:\Users\Mr.Sud0\Documents\tokaido_logo_4-185px.png"
       inkscape:export-xdpi="32.021557"
       inkscape:export-ydpi="32.021557" />
  </g>
  <g
     inkscape:groupmode="layer"
     id="layer11"
     inkscape:label="aikido"
     style="display:none">
    <text
       xml:space="preserve"
       style="font-size:40px;font-style:normal;font-variant:normal;font-weight:normal;font-stretch:normal;line-height:125%;letter-spacing:0px;word-spacing:0px;fill:#000000;fill-opacity:1;stroke:#e94509;stroke-width:0.5;stroke-miterlimit:4;stroke-opacity:1;stroke-dasharray:none;display:inline;enable-background:new;font-family:Viner Hand ITC;-inkscape-font-specification:Viner Hand ITC"
       id="text8797"
       sodipodi:linespacing="125%"
       y="464"
       x="250"
       inkscape:export-filename="C:\Users\Mr.Sud0\Documents\tokaido_logo_4-185px.png"
       inkscape:export-xdpi="32"
       inkscape:export-ydpi="32"><tspan
         sodipodi:role="line"
         id="tspan8799"
         x="250"
         y="464"
         style="font-size:72px;stroke:#e94509;stroke-width:0.5;stroke-miterlimit:4;stroke-opacity:1;stroke-dasharray:none">AIKIDO</tspan></text>
  </g>
  <g
     inkscape:groupmode="layer"
     id="layer10"
     inkscape:label="Tokaido Dojo"
     style="display:none">
    <text
       xml:space="preserve"
       style="font-size:40px;font-style:normal;font-variant:normal;font-weight:normal;font-stretch:normal;line-height:128.99999619%;letter-spacing:0.12px;word-spacing:0px;fill:#1e1410;fill-opacity:1;stroke:#000000;stroke-width:1;stroke-miterlimit:4;stroke-opacity:1;stroke-dasharray:none;font-family:Viner Hand ITC;-inkscape-font-specification:Viner Hand ITC"
       id="text8767"
       sodipodi:linespacing="129%"
       transform="matrix(-1,0,0,-1,738.22737,508.09611)"
       x="345.40164"
       y="0"
       inkscape:export-filename="C:\Users\Mr.Sud0\Documents\tokaido_logo_4-185px.png"
       inkscape:export-xdpi="32"
       inkscape:export-ydpi="32"><textPath
         xlink:href="#path6704"
         id="textPath8786"
         style="font-size:72px;font-style:normal;font-variant:normal;font-weight:normal;font-stretch:normal;text-align:start;line-height:128.99999619%;letter-spacing:0.12px;text-anchor:start;fill:#1e1410;fill-opacity:1;stroke:#000000;stroke-width:1;stroke-miterlimit:4;stroke-opacity:1;stroke-dasharray:none;font-family:Calligraffiti;-inkscape-font-specification:Calligraffiti">Tokaido Dojo</textPath></text>
  </g>
  <g
     inkscape:groupmode="layer"
     id="layer8"
     inkscape:label="bonsai"
     style="display:inline">
    <path
       style="stroke:#db5414;stroke-width:1.30000000000000000;stroke-linecap:butt;stroke-linejoin:miter;stroke-miterlimit:4;stroke-opacity:0.77777779;stroke-dasharray:none;display:inline;fill-opacity:1"
       d="m 343.36759,126.99999 c -1.17851,1.17851 -0.63781,3.4602 0,5 1.80399,4.35521 5.41206,8.91693 10,10 5.12947,1.2109 9.79759,-4.15577 15,-5 4.93544,-0.80091 10.06456,0.80091 15,0 5.20241,-0.84423 9.77617,-5.69957 15,-5 5.95608,0.79763 9.07892,8.97439 15,10 6.77102,1.17283 14.02012,-1.61425 20,-5 2.05108,-1.1613 2.8224,-4.09801 5,-5 3.0796,-1.27561 7.64298,2.35702 10,0 1.17851,-1.17851 0.97452,-3.64793 0,-5 -3.08169,-4.27562 -9.79759,-4.15577 -15,-5 -4.93544,-0.80091 -10.3806,-1.91342 -15,0 -2.1776,0.90199 -2.70603,4.45847 -5,5 -5.12947,1.2109 -10,-3.33333 -15,-5 -5,-1.66667 -9.72954,-5 -15,-5 -5.27046,0 -10,3.33333 -15,5 -5,1.66667 -9.79759,4.15577 -15,5 -3.29029,0.53394 -7.64298,-2.35702 -10,0 z"
       id="path6673"
       inkscape:connector-curvature="0"
       sodipodi:nodetypes="ccccccccccccccccccc"
       inkscape:export-filename="C:\Users\Mr.Sud0\Documents\tokaido_logo_4-185px.png"
       inkscape:export-xdpi="32"
       inkscape:export-ydpi="32" />
    <path
       style="stroke:#db5414;stroke-width:1.30000000000000000;stroke-linecap:butt;stroke-linejoin:miter;stroke-miterlimit:4;stroke-opacity:0.77777779;stroke-dasharray:none;display:inline;fill-opacity:1"
       d="m 378.36759,145.63512 c 5,0 10.13376,-2.48637 15,-3.63513 3.62708,-0.85624 6.82981,-6.95928 10,-5 -5,5 -4.55407,8.65504 -15,10 -3.62708,0.85624 -6.37292,4.14376 -10,5 -4.86624,1.14876 -10.3806,-1.91342 -15,0 -2.1776,0.90199 -5.90199,2.8224 -5,5 5.46845,-3.52927 11.299,3.2851 15,5 1.5398,0.63781 7,-5.49692 7.54459,-5 -0.54459,4 -2.63905,6.45662 -3.81756,7.63513 -3.53553,3.53553 -8.86079,3.51363 -13.72703,2.36487 -3.62708,-0.85624 -6.37292,-4.14376 -10,-5 -1.62208,-0.38292 -3.82149,1.17851 -5,0 -2.35702,-2.35702 -2.05137,-7.37265 0,-10 4.22902,-5.41642 13.17964,-4.16038 20,-5 z"
       id="path6675"
       inkscape:connector-curvature="0"
       sodipodi:nodetypes="cccccccccccccccc"
       inkscape:export-filename="C:\Users\Mr.Sud0\Documents\tokaido_logo_4-185px.png"
       inkscape:export-xdpi="32"
       inkscape:export-ydpi="32" />
    <path
       style="fill-opacity:1;stroke:#db5414;stroke-width:1.29999995;stroke-linecap:butt;stroke-linejoin:miter;stroke-miterlimit:4;stroke-opacity:0.77777782;stroke-dasharray:none;display:inline"
       d="m -285,144 c 5,0 53.33333,1.66667 60,0 6.66667,-1.66667 13.16919,-5.74983 20,-5 3.70453,0.40665 11.42007,0.78171 15,1.81756 16.08978,4.65559 33.49829,-4.68968 50,-1.81756 6.77006,1.17833 13.16919,5.74983 20,5 7.40905,-0.81331 7.74583,1.71248 15,0 6.48833,-1.53169 18.36578,-10.65692 25,-10 21.63241,1e-5 45.77113,7.59507 55.77113,17.59507 -9.13872,7.40494 -17.8035,4.41546 -16.9155,12.40493 -2.22322,10.00001 4.83333,18.67062 7.77678,20.00001 C -29.01238,185.804 -6.80399,185.64479 -5,190 c 0.45253,2.69562 -11.63682,7.54885 -15,9 -8.18761,3.67678 -16.81239,6.32322 -25,10 -3.39972,1.5267 -6.37292,4.14376 -10,5 -4.86624,1.14876 -10.13376,-3.69335 -15,-2.54459 -11.21069,-15.10274 -14.79347,-8.44474 -22.18108,-7.45541 -8.42317,1.12801 -6.18651,-14.99999 -16.81892,-11 -4.36759,16.00001 -9.03226,22.29752 -11,21 -13.36759,-4.99999 -13.36759,-9.99999 -20,-15 -5,-5 -18.74583,-2.28752 -26,-4 -17.8429,-4.21214 -41.1571,4.21214 -59,0 -3.62708,-0.85624 -6.37292,-6.14376 -10,-7 -8.11041,-1.91461 -10.88959,4.08539 -19,6 -3.62708,0.85624 -12.32134,-0.40304 -16,-1 -4.65317,-0.75511 -25.75511,5.65317 -25,1 0.59696,-3.67866 21.97668,-17.82091 25,-20 3.82423,-2.75635 5.64479,-8.19601 10,-10 6.1592,-2.55122 3.51167,1.53169 10,0 3.62708,-0.85624 -5,-5 -10,-10 -10,-5 -26.02561,-4.07892 -25,-10 z"
       id="path6677"
       inkscape:connector-curvature="0"
       sodipodi:nodetypes="ccccccccccccccccccccccccccccccc"
       inkscape:export-filename="C:\Users\Mr.Sud0\Documents\tokaido_logo_4-185px.png"
       inkscape:export-xdpi="32"
       inkscape:export-ydpi="32" />
    <path
       style="fill-opacity:1;stroke:#db5414;stroke-width:1.3;stroke-linecap:butt;stroke-linejoin:miter;stroke-miterlimit:4;stroke-opacity:0.77777781999999984;stroke-dasharray:none;display:inline"
       d="m 315,229 c -3.62708,0.85624 -6.97668,2.82091 -10,5 -1.91212,1.37818 -5,2.64298 -5,5 0,2.35702 3.17722,3.50567 5,5 4.64721,3.8098 10,6.66667 15,10 5,3.33333 15.3734,4.00236 15,10 -0.23157,3.71958 -6.97668,2.82091 -10,5 -3.82423,2.75635 -11.80399,5.64479 -10,10 1.27561,3.0796 6.70971,-1.64714 10,-2.18108 5.20241,-0.84423 6.88155,-1.50212 11.36487,-4.27297 2.005,-1.23916 6.30854,-3.1684 8.63513,-3.54595 3.67866,-0.59696 7.13876,2.61208 10,5 6.39793,5.33956 12.36477,12.09431 15,20 1.58114,4.74342 2.23607,10.52786 0,15 -7.45356,14.90712 -32.54644,15.09288 -40,30 -1.49071,2.98142 -0.76584,6.75584 0,10 0.85624,3.62708 2.82091,6.97668 5,10 1.37818,1.91212 4.62245,4.47271 5,6.7993 0,3.2007 -2.53361,5.40681 -5,8.2007 -3.97694,4.50501 -9.6018,7.35983 -15,10 -4.73454,2.31559 -9.79759,4.15577 -15,5 -3.29029,0.53394 -6.80969,-0.96595 -10,0 -5.75141,1.74139 -10,7.70196 -17.72634,10 0.48297,1.59515 6.10426,0.38292 7.72634,0 3.62708,-0.85624 6.37292,-4.14376 10,-5 4.86624,-1.14876 10.02433,0.49269 15,0 8.45701,-0.83741 16.51806,-5.52807 25,-5 5.26028,0.32749 9.7428,5.37362 15,5 3.7174,-0.26419 6.37292,-4.14376 10,-5 8.11041,-1.91461 16.88959,-1.91461 25,0 3.62708,0.85624 6.37292,4.14376 10,5 6.31041,1.46588 -4.33669,-2.02569 20,0 -1.69079,-0.80112 -9.87462,-4.79635 -15,-6.28521 -5,-1.66667 -10.13073,-1.69787 -15,-3.71479 -6.88619,-2.85235 -14.41223,-5.06721 -20,-10 -4.50501,-3.97694 -8.25861,-9.24859 -10,-15 -1.93189,-6.38061 -3.14572,-14.12217 0,-20 2.83551,-5.2982 10.35279,-6.1902 15,-10 3.64557,-2.98865 5.3089,-10.46451 10,-10 5.98001,0.59214 6.24383,8.04978 11.92782,10 4.78402,1.91184 9.72198,0.23877 13.07218,-1.7993 1.11032,-1.55576 -3.19518,-1.95197 -5.46404,-1.49496 -4.67964,-0.67526 -4.26334,-0.53495 -8.44542,-3.34155 C 387.92035,320.40491 386.42618,317.4431 385,314 c -4.03384,-9.73855 -4.45831,-21.03335 -10,-30 -3.71748,-6.01501 -12.29402,-8.46719 -15,-15 -0.63781,-1.5398 -1.17851,-3.82149 0,-5 5,-3 15,-10 15,-10 0.97452,-1.35207 1.17851,-3.82149 0,-5 -2.35702,-2.35702 -6.75584,-0.76584 -10,0 -3.62708,0.85624 -6.37292,4.14376 -10,5 -4.86624,1.14876 -10.09022,0.94554 -15,0 -8.81333,-1.69729 -19.9682,-2.56787 -25,-10 -0.93438,-1.38011 -0.63781,-3.4602 0,-5 1.80399,-4.35521 11.80399,-5.64479 10,-10 -1.27561,-3.0796 -6.75584,-0.76584 -10,0 z"
       id="path6679"
       inkscape:connector-curvature="0"
       sodipodi:nodetypes="cccccccccccccccccccccccccccccccccccccccccccccccccccccccc"
       inkscape:export-filename="C:\Users\Mr.Sud0\Documents\tokaido_logo_4-185px.png"
       inkscape:export-xdpi="32"
       inkscape:export-ydpi="32" />
    <path
       style="stroke:#db5414;stroke-width:1.30000000000000000;stroke-linecap:butt;stroke-linejoin:miter;stroke-miterlimit:4;stroke-opacity:0.77777779;stroke-dasharray:none;display:inline;fill-opacity:1"
       d="m 258.36759,279.99999 c -0.84423,5.20241 9.79759,4.15577 15,5 1.64515,0.26697 3.82149,1.17851 5,0 1.17851,-1.17851 1.17851,-3.82149 0,-5 -3.53553,-3.53553 -10,0 -15,0 -1.66667,0 -4.73303,-1.64515 -5,0 z"
       id="path6683"
       inkscape:connector-curvature="0"
       sodipodi:nodetypes="cccccc"
       inkscape:export-filename="C:\Users\Mr.Sud0\Documents\tokaido_logo_4-185px.png"
       inkscape:export-xdpi="32"
       inkscape:export-ydpi="32" />
    <path
       style="stroke:#db5414;stroke-width:1.30000000000000000;stroke-linecap:butt;stroke-linejoin:miter;stroke-miterlimit:4;stroke-opacity:0.77777779;stroke-dasharray:none;display:inline;fill-opacity:1"
       d="m 249.36759,298.99999 c 10,0 17.50721,-0.98998 25,-5 6.23438,-3.33654 8.46719,-12.29402 15,-15 4.6194,-1.91342 10.3806,-1.91342 15,0 6.53281,2.70598 8.46719,12.29402 15,15 7.699,3.18903 12.301,1.81097 20,5 2.1776,0.90199 8.08788,-1.01467 10,0.36351 0,-0.36351 13.54595,-1.81756 15,-0.36351 -1.53169,6.48833 -18.51167,3.46831 -25,5 -3.62708,0.85624 -6.37292,4.14376 -10,5 -9.73249,2.29753 -20.7612,3.82683 -30,0 -2.1776,-0.90199 -2.8224,-4.09801 -5,-5 -7.699,-3.18903 -16.7291,1.01819 -25,0 -6.82036,-0.83962 -20.16348,1.8699 -20,-5 z"
       id="path6685"
       inkscape:connector-curvature="0"
       sodipodi:nodetypes="cccccccccccccc"
       inkscape:export-filename="C:\Users\Mr.Sud0\Documents\tokaido_logo_4-185px.png"
       inkscape:export-xdpi="32"
       inkscape:export-ydpi="32" />
    <path
       style="stroke:#db5414;stroke-width:1.30000000000000000;stroke-linecap:butt;stroke-linejoin:miter;stroke-miterlimit:4;stroke-opacity:0.77777779;stroke-dasharray:none;display:inline;fill-opacity:1"
       d="m 370.36759,268.99999 c 0.69957,-5.22383 19.74569,0.41226 25,0 10.10688,-0.793 19.89312,5.793 30,5 5.25431,-0.41226 10.13073,-2.98308 15,-5 3.4431,-1.42618 6.32134,-5.59696 10,-5 2.32659,0.37755 9.09801,-2.1776 10,0 5,0 -1.2889,13.94335 0,15 6.57214,5.38787 33.42786,-10.38787 40,-5 2.57781,2.1133 -12.94863,7.37265 -15,10 -4.22902,5.41642 -18.17964,-0.83962 -25,0 -6.61672,0.81456 -13.33333,0 -20,0 -3.33333,0 -6.66667,0 -10,0 -3.33333,0 -6.66667,0 -10,0 -8.33333,0 -15,5 -25,0 -5,-10 -25.79763,-9.04392 -25,-15 z"
       id="path6687"
       inkscape:connector-curvature="0"
       sodipodi:nodetypes="ccccccccccccccc"
       inkscape:export-filename="C:\Users\Mr.Sud0\Documents\tokaido_logo_4-185px.png"
       inkscape:export-xdpi="32"
       inkscape:export-ydpi="32" />
    <path
       style="stroke:#db5414;stroke-width:1.30000000000000000;stroke-linecap:butt;stroke-linejoin:miter;stroke-miterlimit:4;stroke-opacity:0.77777779;stroke-dasharray:none;display:inline;fill-opacity:1"
       d="m 423.36759,288.99999 c -1.95928,3.17019 6.92772,1.88383 8.97183,5 4.99517,0.21975 7.75313,3.49659 8.97183,5.51408 3.0796,1.27561 5.48348,8.71005 7.05634,5.77113 5.07077,-3.22464 -4.7018,-13.4497 -10,-16.28521 -2.93892,-1.57286 -13.24756,-2.8355 -15,0 z"
       id="path6689"
       inkscape:connector-curvature="0"
       sodipodi:nodetypes="cccccc"
       inkscape:export-filename="C:\Users\Mr.Sud0\Documents\tokaido_logo_4-185px.png"
       inkscape:export-xdpi="32"
       inkscape:export-ydpi="32" />
    <path
       style="stroke:#db5414;stroke-width:1.30000000000000000;stroke-linecap:butt;stroke-linejoin:miter;stroke-miterlimit:4;stroke-opacity:0.77777779;stroke-dasharray:none;display:inline;fill-opacity:1"
       d="m 398.36759,310.99999 c 9.94983,-4.21956 22.75743,-2.4261 30,-3.00068 5.25431,0.41226 9.73342,2.79842 15,3.00068 6.86678,0.26372 13.17964,-4.16038 20,-5 3.30836,-0.40728 6.75584,-0.76584 10,0 3.62708,0.85624 6.37292,4.14376 10,5 1.62208,0.38292 3.4602,1.90678 5,2.54459 2.1776,0.90199 8.46741,0.12882 8.08986,2.45541 -0.59696,3.67866 -9.64676,3.57382 -13.08986,5 -4.86927,2.01692 -9.79759,4.15577 -15,5 -1.64515,0.26697 -3.35485,-0.26697 -5,0 -5.20241,0.84423 -9.79759,4.15577 -15,5 -1.64515,0.26697 -5,0 -5,0 l 0,0 c 0,0 -6.37292,-4.14376 -10,-5 -4.86624,-1.14876 -10.06456,0.80091 -15,0 -5.20241,-0.84423 -6.01841,-3.72786 -10,-7.18108 -2.81541,-2.44179 -11.69113,-4.49793 -10,-7.81892 z"
       id="path6691"
       inkscape:connector-curvature="0"
       sodipodi:nodetypes="cccccccccccccccccc"
       inkscape:export-filename="C:\Users\Mr.Sud0\Documents\tokaido_logo_4-185px.png"
       inkscape:export-xdpi="32"
       inkscape:export-ydpi="32" />
    <path
       style="stroke:#db5414;stroke-width:1.30000000000000000;stroke-linecap:butt;stroke-linejoin:miter;stroke-miterlimit:4;stroke-opacity:0.77777779;stroke-dasharray:none;display:inline;fill-opacity:1"
       d="m 222.36759,265.99999 c -2.81541,2.44179 -6.95928,6.82981 -5,10 0.87622,1.41775 3.33333,0 5,0 1.66667,0 3.35485,-0.26697 5,0 5.20241,0.84423 9.73342,4.79774 15,5 6.86678,0.26372 13.40221,-3.07872 20,-5 5.06028,-1.47356 10.51668,-2.22915 15,-5 2.005,-1.23916 9.09801,-2.8224 10,-5 0.63781,-1.5398 -3.82149,-3.82149 -5,-5 -3.53553,-3.53553 -10.13376,1.14876 -15,0 -3.62708,-0.85624 -6.32134,-5.59696 -10,-5 -2.32659,0.37755 -2.8224,4.09801 -5,5 -4.6194,1.91342 -10.06456,-0.80091 -15,0 -5.20241,0.84423 -11.01841,1.54678 -15,5 z"
       id="path6681"
       inkscape:connector-curvature="0"
       sodipodi:nodetypes="cccccccccccccc"
       inkscape:export-filename="C:\Users\Mr.Sud0\Documents\tokaido_logo_4-185px.png"
       inkscape:export-xdpi="32"
       inkscape:export-ydpi="32" />
  </g>
  <g
     inkscape:groupmode="layer"
     id="layer9"
     inkscape:label="kanji"
     style="display:inline">
    <g
       transform="matrix(0.75571967,0,0,0.57288547,97.65651,-315.97845)"
       id="g4174"
       style="font-size:144px;font-style:normal;font-variant:normal;font-weight:normal;font-stretch:normal;line-height:125%;letter-spacing:0px;word-spacing:0px;fill:#000000;fill-opacity:1;fill-rule:nonzero;stroke:#db5414;stroke-width:1.25079336;stroke-linecap:square;stroke-linejoin:round;stroke-miterlimit:4;stroke-opacity:0.77647060000000001;stroke-dasharray:none;stroke-dashoffset:2.97083686999999990;display:inline;enable-background:new;font-family:Sans;-inkscape-font-specification:Sans"
       inkscape:export-filename="C:\Users\Mr.Sud0\Documents\tokaido_logo_4-185px.png"
       inkscape:export-xdpi="32"
       inkscape:export-ydpi="32">
      <path
         inkscape:connector-curvature="0"
         id="path4176"
         d="m 185.82742,866.95167 c 3.08129,0.90542 7.17801,1.3581 12.29018,1.35803 l 32.66879,0 0,-4.59642 c -6e-5,-3.76062 -0.1051,-6.54633 -0.31514,-8.35712 3.9216,0.48758 7.21298,1.21883 9.87416,2.19374 0.91033,0.3483 1.36552,0.87062 1.36558,1.56696 -6e-5,0.62687 -0.45525,1.04472 -1.36558,1.25357 -1.26059,0.62687 -2.76622,1.0099 -4.5169,1.14911 l 0,6.79016 35.29489,0 4.62195,-5.01428 c 2.591,1.6715 4.972,3.37774 7.14302,5.11874 0.63016,0.34828 0.94529,0.73132 0.94539,1.1491 -10e-5,1.04471 -0.42028,1.56703 -1.26053,1.56697 l -46.74472,0 0,11.38658 27.7317,0 3.36142,-4.59642 c 2.591,1.46255 4.44678,2.92505 5.56735,4.38749 0.56014,0.55719 0.84026,1.00987 0.84035,1.35803 -9e-5,0.69648 -1.26062,1.84559 -3.7816,3.44732 l 0,14.52049 c -9e-5,5.22323 0.0699,8.63572 0.21009,10.23748 0.13997,2.01966 0.21,3.65626 0.21009,4.90981 -9e-5,0.97501 -0.38525,1.74108 -1.15548,2.29821 -0.98051,0.34822 -1.75083,0.52233 -2.31098,0.52231 -1.33065,2e-5 -1.99592,-0.38301 -1.99584,-1.1491 l 0,-3.02946 -25.52577,0 c 2.59103,3.0643 5.46224,5.81518 8.61364,8.25266 3.43137,2.71607 7.35302,5.39731 11.76496,8.04373 4.4818,2.4375 8.92867,4.49196 13.34062,6.16338 4.41177,1.60177 8.50849,2.75088 12.29019,3.44731 l 0,1.67142 c -3.71167,0 -6.23273,1.11428 -7.56319,3.34285 -4.41196,-1.4625 -8.36862,-3.23839 -11.87001,-5.32766 -3.99177,-2.22857 -7.45822,-4.59642 -10.39938,-7.10355 -3.29147,-2.22857 -6.47781,-4.77052 -9.55904,-7.62588 -3.08136,-2.78569 -6.33773,-6.37229 -9.76912,-10.75979 l 0,29.66778 c -6e-5,1.53213 0.07,2.57677 0.21009,3.13392 0.14,1.18391 0.21003,2.19373 0.21009,3.02945 -6e-5,2.22856 -1.08551,3.34284 -3.25638,3.34285 -1.68076,-1e-5 -2.52111,-0.52234 -2.52106,-1.56695 -5e-5,-1.53216 0.035,-3.44733 0.10505,-5.74553 0.14,-2.4375 0.21003,-4.5616 0.21009,-6.3723 l 0,-23.92226 c -1.96088,2.71608 -4.06177,5.15357 -6.30266,7.31248 -3.15138,3.34285 -6.72288,6.37231 -10.71452,9.08837 -3.43148,2.57678 -7.31812,5.15355 -11.65993,7.73034 -4.4819,2.36784 -9.90919,4.94461 -16.28186,7.73034 l -1.15549,-2.19375 c 6.23262,-2.925 11.51985,-5.74553 15.86169,-8.46158 4.3418,-2.64643 8.22844,-5.50178 11.65992,-8.56605 3.29135,-2.50713 6.12755,-5.2232 8.50859,-8.1482 1.82072,-2.15891 3.32636,-4.21336 4.5169,-6.16338 l -20.48363,0 0,3.02946 c -3e-5,0.76609 -0.66531,1.14912 -1.99585,1.1491 -0.63029,2e-5 -1.43562,-0.17409 -2.41602,-0.52231 -0.70031,-0.55713 -1.05046,-1.3232 -1.05044,-2.29821 -2e-5,-1.25355 0.10503,-2.89015 0.31513,-4.90981 0.35013,-1.60176 0.5252,-5.01425 0.52523,-10.23748 l 0,-16.71424 c -3e-5,-2.71601 -0.28015,-5.04904 -0.84036,-6.99909 l 6.30266,4.59642 25.21064,0 0,-11.38658 -32.66879,0 c -4.97211,0.0697 -8.36854,0.20899 -10.1893,0.41785 z m 18.90798,45.65078 26.05099,0 0,-12.11783 -26.05099,0 z m 31.09311,-12.11783 0,12.11783 28.6771,0 0,-12.11783 z m -31.09311,-3.02946 26.05099,0 0,-12.11783 -26.05099,0 z m 31.09311,-12.11783 0,12.11783 28.6771,0 0,-12.11783 z"
         style="fill:#000000;fill-opacity:1;fill-rule:nonzero;stroke:#db5414;stroke-width:1.25079336;stroke-linecap:square;stroke-linejoin:round;stroke-miterlimit:4;stroke-opacity:0.77647060000000001;stroke-dasharray:none;stroke-dashoffset:2.97083686999999990" />
      <path
         sodipodi:nodetypes="sscccccccsccccccccccccccccccccccccccccccccccccccccccccccccccccccccccscccccccccccccccsccccccccccccccccccccccccccccccccccccsccccc"
         inkscape:connector-curvature="0"
         id="path4178"
         d="m 305.19279,858.00785 c 1.08257,-0.71662 16.14034,11.09078 18.88981,12.93866 2.38706,1.60431 4.19127,3.01979 5.3252,4.52956 0.90675,1.00664 1.36101,2.04917 1.36276,3.12756 0.004,2.3008 -0.89972,3.45116 -2.71006,3.45109 -0.67892,7e-5 -1.32033,-0.14372 -1.92422,-0.43138 -0.60394,-0.28753 -1.24631,-1.04245 -1.92713,-2.26478 -1.51302,-2.73205 -3.13837,-4.96088 -4.87604,-6.6865 -1.88881,-1.86927 -15.36996,-9.88164 -18.54108,-11.75106 z m -3.11069,22.29678 c 4.9815,1.86941 11.66733,7.69653 14.46132,9.56582 2.49178,1.5818 4.38003,3.12761 5.66482,4.63742 0.83145,1.0785 1.24799,2.12103 1.24962,3.12755 0.004,2.37267 -0.89954,3.55899 -2.70989,3.55895 -0.67891,4e-5 -1.35809,-0.17971 -2.03753,-0.53924 -0.52851,-0.28755 -1.13318,-1.04248 -1.81399,-2.26478 -1.66388,-2.73208 -3.40232,-4.92496 -5.21531,-6.57865 -1.96436,-1.94119 -6.19411,-4.93181 -9.59154,-6.8012 z m 25.12908,29.51748 0.90776,1.6177 c -2.25427,5.46426 -4.73443,11.18013 -7.44045,17.14764 -2.78094,6.32701 -5.71305,12.43832 -8.79637,18.33395 -0.44709,3.45109 -0.93466,5.17663 -1.46266,5.17665 -0.52805,-2e-5 -2.75748,-2.62428 -6.68832,-7.87282 3.99126,-4.17008 8.24435,-9.7062 12.7593,-16.6084 4.51503,-6.83028 8.08861,-12.76185 10.72074,-17.79472 z m 21.07213,-54.35481 c 3.39612,1.07855 6.33981,2.22891 8.83108,3.45109 0.45323,0.43147 0.6802,0.86285 0.68096,1.29416 7e-4,0.57526 -0.60198,0.9707 -1.80849,1.18632 -1.43281,0.28766 -2.48863,0.43146 -3.16747,0.43138 -0.97643,2.6603 -2.14151,5.24862 -3.49523,7.76497 l 46.16458,0 5.30853,-5.93157 c 3.0204,2.01321 5.88997,3.99041 8.60874,5.93157 0.60393,0.35956 0.90634,0.79095 0.90726,1.29416 0.001,1.22233 -0.56294,1.83346 -1.69432,1.8334 l -60.76073,0 c -0.15035,0.35955 -0.33836,0.71904 -0.56402,1.07847 -2.03088,3.66685 -4.13777,6.93823 -6.32068,9.81409 -2.33385,2.87597 -5.12009,5.85973 -8.35872,8.95129 l -1.81175,-0.86278 c 2.78547,-3.45105 5.1187,-6.68644 6.99973,-9.70621 1.65535,-2.58829 3.23479,-5.50016 4.73832,-8.73563 1.428,-3.23533 2.66783,-6.25504 3.71946,-9.05913 0.82547,-2.66014 1.49971,-5.572 2.02275,-8.73558 z m -2.10531,27.93235 5.8894,3.55894 39.71513,0 4.06715,-3.88248 c 2.34014,1.15042 4.26561,2.37268 5.77642,3.66679 0.6797,0.57523 1.0199,1.04257 1.02057,1.402 7e-4,0.71904 -1.31691,2.04914 -3.95384,3.99034 -0.21459,7.40552 -0.54355,13.98416 -0.98687,19.73596 l 1.47093,0 4.97028,-5.17665 c 2.56757,1.86938 4.9465,3.63087 7.13678,5.2845 0.60392,0.35951 0.90628,0.75495 0.90708,1.18631 10e-4,1.22228 -0.44978,1.83342 -1.35485,1.8334 l -13.35153,0 c -0.29439,4.67337 -0.62724,8.8075 -0.99857,12.40237 -0.37061,4.17009 -0.77992,7.65713 -1.22795,10.46114 l 3.50759,0 4.97029,-5.17664 c 2.64277,1.72555 5.17256,3.48705 7.58937,5.28449 0.60392,0.35949 0.90621,0.71898 0.90691,1.07846 0.001,1.15037 -0.44995,1.72555 -1.35503,1.72555 l -16.06709,0 c -0.37416,1.94125 -0.71114,3.48705 -1.01094,4.63742 -0.97591,3.01969 -1.99081,5.17663 -3.04469,6.47081 -0.90345,1.15035 -2.25981,2.04906 -4.06906,2.69616 -1.507,1.07845 -4.14576,1.94123 -7.91626,2.58832 -0.37942,-1.36607 -0.87139,-2.40859 -1.47592,-3.12755 -0.60468,-0.71899 -1.62388,-1.25823 -3.05758,-1.6177 -1.35856,-0.4314 -4.18812,-0.97064 -8.48873,-1.6177 l 0.4483,-2.69618 c 6.64038,1.50985 10.82808,2.26478 12.5631,2.26479 1.50856,-10e-6 2.82817,-0.28761 3.95882,-0.86277 1.28157,-0.43141 2.37402,-1.25823 3.27735,-2.48048 1.12888,-1.58176 2.10616,-3.66679 2.93189,-6.25512 l -50.46423,0 -1.6e-4,-0.10784 c -0.30166,0.0719 -0.56562,0.10784 -0.79188,0.10784 -1.58411,0 -2.37661,-0.28759 -2.37749,-0.86277 -7e-4,-0.57518 0.22443,-1.15037 0.67614,-1.72555 0.22534,-0.57518 0.82599,-2.33668 1.80196,-5.28449 1.57601,-5.03284 2.99982,-10.92846 4.27144,-17.68687 l -3.3e-4,-0.21569 c -4.29957,0.0719 -7.31664,0.21571 -9.0512,0.43138 l -2.15739,-4.74525 c 2.94297,0.719 6.82837,1.11444 11.65619,1.18631 0.74706,-4.52954 1.49388,-9.23884 2.24045,-14.12793 0.82099,-5.46419 1.30368,-10.24539 1.44805,-14.34362 z m 43.4227,54.46262 c 0.67353,-3.3073 1.30703,-8.12445 1.90048,-14.45146 0.29706,-2.8759 0.5566,-5.67992 0.77864,-8.41205 l -45.25939,0 c -1.27278,6.03943 -2.84689,12.29454 -4.72233,18.76534 -0.37411,1.94124 -0.71138,3.3073 -1.01181,4.09817 z m -42.01952,-25.99107 44.8068,0 c 0.51613,-7.40544 0.76845,-14.73902 0.75697,-22.00075 l -42.43069,0 c -1.11709,9.05917 -2.16145,16.39274 -3.13308,22.00075 z m 15.24548,-18.54965 c 3.84949,1.5818 6.86931,3.16355 9.05944,4.74526 2.03865,1.2942 3.51165,2.58836 4.41897,3.88248 0.68019,0.86282 1.02107,1.76153 1.02264,2.69618 0.003,2.22886 -0.71135,3.34327 -2.14449,3.34324 -0.60353,3e-5 -1.16951,-0.14376 -1.69791,-0.43138 -0.45302,-0.21567 -0.94431,-0.8268 -1.47386,-1.8334 -1.2862,-2.37259 -2.68473,-4.27788 -4.1956,-5.71588 -1.51136,-1.65361 -3.58831,-3.27131 -6.23091,-4.8531 z m -1.65718,25.1283 c 4.00026,1.50987 7.2086,3.05567 9.62502,4.63741 2.03865,1.29418 3.58709,2.58834 4.64527,3.88249 0.68019,0.86279 1.02101,1.72556 1.02247,2.58832 0.004,2.37263 -0.71101,3.55895 -2.14415,3.55895 -0.67897,0 -1.28265,-0.1438 -1.81106,-0.43139 -0.45313,-0.28759 -0.94453,-0.97062 -1.4742,-2.04909 -1.43696,-2.30072 -2.91093,-4.20602 -4.42191,-5.71588 -1.73741,-1.50984 -4.0029,-3.09159 -6.79647,-4.74526 z"
         style="fill:#000000;fill-opacity:1;fill-rule:nonzero;stroke:#db5414;stroke-width:1.25079336;stroke-linecap:square;stroke-linejoin:round;stroke-miterlimit:4;stroke-opacity:0.77647060000000001;stroke-dasharray:none;stroke-dashoffset:2.97083686999999990" />
      <path
         inkscape:connector-curvature="0"
         id="path4180"
         d="m 473.21568,850.37985 c 2.26776,1.77522 4.08202,3.55034 5.44277,5.32539 1.10146,1.46649 1.94379,2.89431 2.527,4.28346 0.38871,0.92623 0.58309,1.92956 0.58315,3.00999 -6e-5,2.39266 -0.74519,3.58893 -2.23543,3.58886 -0.32403,7e-5 -0.6156,-0.15428 -0.87472,-0.46308 -0.25924,-0.30865 -0.55082,-1.00326 -0.87473,-2.08385 -0.7128,-2.62402 -1.45795,-4.74646 -2.23543,-6.36731 -0.84239,-1.69786 -2.00869,-3.51158 -3.49893,-5.44115 z m 27.60262,-0.34731 c 2.9157,1.15778 5.47509,2.39265 7.6782,3.70462 0.3239,0.46317 0.48588,0.92624 0.48597,1.38922 -9e-5,0.61753 -0.51845,1.04202 -1.55508,1.27347 -1.23118,0.3088 -2.13832,0.46316 -2.72139,0.46308 -0.77762,1.38931 -1.65235,2.70136 -2.6242,3.93615 -0.97199,1.31213 -1.97631,2.43124 -3.01296,3.35731 -1.16638,0.92623 -2.49467,1.89098 -3.98489,2.89423 l -1.65226,-0.92615 c 1.23104,-1.46634 2.23535,-2.89415 3.01295,-4.28347 0.64789,-1.15761 1.29584,-2.46966 1.94386,-3.93615 0.64787,-1.46632 1.19863,-2.81697 1.65227,-4.05192 0.3239,-1.1576 0.58308,-2.43107 0.77753,-3.82039 z m -42.66745,17.48116 c 2.78615,1.00341 6.51186,1.50507 11.17713,1.50501 l 39.36291,0 4.56804,-6.59886 c 2.52691,2.23828 4.85952,4.43789 6.99785,6.59886 0.58306,0.38596 0.87464,0.81045 0.87473,1.27345 -9e-5,1.23494 -0.51845,1.85238 -1.55508,1.85231 l -29.64367,0 c -0.90719,2.08392 -1.91151,3.89763 -3.01297,5.44116 -1.29596,2.16108 -2.88343,4.39928 -4.76241,6.71461 l 23.32616,0 3.20735,-5.09384 c 2.33253,1.62082 4.01719,3.24159 5.054,4.86231 0.45348,0.5403 0.68026,1.04197 0.68035,1.505 -9e-5,0.77184 -1.13401,2.04531 -3.40174,3.82038 l 0,31.37346 c -8e-5,5.78849 0.0647,9.57027 0.19439,11.34539 0.12951,2.23822 0.1943,4.05193 0.19439,5.44116 -9e-5,1.08051 -0.35646,1.92949 -1.06912,2.54692 -0.90722,0.3859 -1.58756,0.57885 -2.04105,0.57885 -1.36077,0 -2.04111,-0.46308 -2.04103,-1.38924 l 0,-1.73653 -35.28084,0 0,2.19961 c -4e-5,0.92616 -0.68038,1.38923 -2.04103,1.38923 -0.51841,0 -1.19875,-0.19295 -2.04105,-0.57884 -0.64798,-0.69462 -0.97196,-1.54359 -0.97191,-2.54692 -5e-5,-1.38923 0.0648,-3.20295 0.19437,-5.44117 0.38874,-1.77511 0.58312,-5.5569 0.58317,-11.34538 l 0,-34.2677 c -5e-5,-2.93276 -0.25923,-5.51827 -0.77754,-7.75653 l 5.73435,5.09384 7.87257,0 c 1.42543,-2.31533 2.52696,-4.63071 3.30454,-6.94615 0.84229,-1.85225 1.42544,-3.58878 1.74947,-5.20962 l -15.2592,0 c -4.53569,0.0772 -7.64584,0.2702 -9.33047,0.57885 z m 12.82939,66.79886 35.28084,0 0,-14.00808 -35.28084,0 z m 0,-17.13385 35.28084,0 0,-12.96615 -35.28084,0 z m 0,-16.32346 35.28084,0 0,-13.31347 -35.28084,0 z M 441.045,851.306 c 1.61985,1.46651 3.11013,2.93291 4.47084,4.39924 1.42547,1.31213 2.59178,2.62418 3.49893,3.93615 0.97191,1.23496 1.61984,2.35406 1.94384,3.3573 0.32396,0.92624 0.48594,1.8138 0.48597,2.6627 -3e-5,1.38931 -0.16201,2.50841 -0.48597,3.35732 -0.45358,0.84904 -1.03674,1.27352 -1.74945,1.27345 -0.51838,7e-5 -0.93956,-0.15428 -1.2635,-0.46308 -0.32401,-0.30864 -0.61558,-1.15761 -0.87474,-2.54692 -0.32399,-1.69787 -0.87474,-3.39582 -1.65226,-5.09384 -0.77756,-1.62069 -1.5875,-3.16428 -2.42982,-4.63078 -0.84235,-1.46632 -2.04106,-3.08709 -3.59611,-4.8623 z m 8.9417,27.9004 c 1.74942,1.77519 3.23971,3.47314 4.47084,5.09384 0.32395,0.46314 0.48593,0.88762 0.48597,1.27347 -4e-5,0.92621 -0.5184,1.65941 -1.55508,2.19961 -1.03674,0.54031 -2.04107,0.92621 -3.01297,1.15769 -1.81428,6.02005 -4.0173,12.1944 -6.60908,18.52309 l 7.6782,0 2.81858,-4.1677 c 1.68464,1.38926 3.14252,2.81708 4.37366,4.28346 0.38873,0.46311 0.58312,0.88759 0.58315,1.27347 -0.12962,0.4631 -0.48599,0.92617 -1.06912,1.38923 -0.58319,0.54028 -1.26353,0.96477 -2.04104,1.27346 -0.324,3.16438 -0.84236,6.17438 -1.55507,9.03 -0.64798,2.39258 -1.45792,4.78514 -2.42981,7.17769 -0.97196,2.46975 -2.04107,4.63078 -3.20735,6.48307 -1.03675,1.62078 -2.23545,3.20296 -3.59612,4.74655 l 1.45789,0 c -2e-5,0.61744 0.45354,1.27346 1.36069,1.96807 2.59178,1.85231 5.50754,3.20295 8.74731,4.05194 3.17492,1.00331 6.83583,1.8137 10.98274,2.43114 4.406,0.54025 11.43625,0.81038 21.09075,0.81039 10.04314,-10e-6 20.99346,-0.65604 32.85102,-1.96808 l 0,1.96808 c -2.33272,0.38589 -3.88779,2.23819 -4.66523,5.55692 -6.73876,0.23153 -14.44935,0.34729 -23.13179,0.34731 -8.29381,-2e-5 -14.87049,-0.23155 -19.73005,-0.69461 -4.4061,-0.54027 -8.39098,-1.35066 -11.95466,-2.43116 -3.95253,-0.92617 -7.45145,-2.27681 -10.49677,-4.05193 -3.36937,-1.77512 -5.83157,-3.70461 -7.38663,-5.78846 -2.20305,4.32205 -4.50326,8.21962 -6.90066,11.6927 -2e-5,3.08716 -0.2592,4.63075 -0.77754,4.63077 -0.90713,-2e-5 -2.88338,-2.50835 -5.92873,-7.525 1.94384,-1.08052 3.85529,-2.62412 5.73434,-4.63078 2.07342,-1.92948 3.95248,-4.05191 5.63716,-6.3673 l 0.29158,0 c 1.42547,-1.8523 2.62418,-3.70462 3.59611,-5.55692 0.97191,-1.92949 1.81425,-4.01333 2.52701,-6.25154 0.77752,-2.16102 1.49026,-4.86229 2.13824,-8.10385 0.64791,-3.00997 1.00429,-5.82703 1.06912,-8.45116 l -9.33048,0 c -0.64797,0.92619 -1.5551,1.38926 -2.72138,1.38923 -1.4903,3e-5 -2.23545,-0.46304 -2.23543,-1.38923 -2e-5,-0.23151 0.0648,-0.57882 0.19439,-1.04192 0.38875,-0.69459 0.74513,-1.42779 1.06911,-2.19962 3.17493,-7.71791 5.73433,-14.81842 7.6782,-21.30154 l -4.66523,0 c -5.18361,6e-5 -8.29376,0.15442 -9.33048,0.46308 l -1.65226,-4.63077 c 2.52699,0.69467 6.1879,1.04198 10.98274,1.04193 l 4.66523,0 z"
         style="fill:#000000;fill-opacity:1;fill-rule:nonzero;stroke:#db5414;stroke-width:1.25079336;stroke-linecap:square;stroke-linejoin:round;stroke-miterlimit:4;stroke-opacity:0.77647060000000001;stroke-dasharray:none;stroke-dashoffset:2.97083686999999990" />
    </g>
  </g>
</svg>
